<svg xmlns="http://www.w3.org/2000/svg" viewBox="0 0 23 19" width="23" height="19">
	<style>
		tspan { white-space:pre }
		.shp0 { fill: #545555 } 
	</style>
	<path id="Shape 25" class="shp0" d="M20.3 0L2.7 0C1.21 0 0 1.23 0 2.74L0 5L9.89 12.48C10.37 12.84 10.94 13.03 11.5 13.03C12.06 13.03 12.63 12.84 13.11 12.48L23 5L23 2.74C23 1.23 21.79 0 20.3 0ZM21.2 4.08L12.04 11.01C11.72 11.26 11.28 11.26 10.96 11.01L1.8 4.08L1.8 2.74C1.8 2.24 2.2 1.83 2.7 1.83L20.3 1.83C20.8 1.83 21.2 2.24 21.2 2.74L21.2 4.08ZM21.2 8.64L23 7.28L23 16.26C23 17.77 21.79 19 20.3 19L2.7 19C1.21 19 0 17.77 0 16.26L0 7.28L1.8 8.64L1.8 16.26C1.8 16.76 2.2 17.17 2.7 17.17L20.3 17.17C20.8 17.17 21.2 16.76 21.2 16.26L21.2 8.64Z" />
</svg>